#tb 0: 1/1
#media_type 0: video
#codec_id 0: fits
#dimensions 0: 72x36
#sar 0: 0/1
0,          0,          0,        1,     8640, 0xb540a5f6
0,          1,          1,        1,     8640, 0xebbd4b4d
0,          2,          2,        1,     8640, 0xb734245d
0,          3,          3,        1,     8640, 0xfec1d6fb
0,          4,          4,        1,     8640, 0x999d864c
